{
  "accessors": [
    {
      "bufferView": 2,
      "componentType": 5126,
      "count": 216,
      "max": [
        39.293636322021484,
        7.45861291885376,
        9.50764274597168
      ],
      "min": [
        -39.2415657043457,
        -7.456131935119629,
        4.089141845703125
      ],
      "type": "VEC3"
    },
    {
      "bufferView": 2,
      "byteOffset": 2592,
      "componentType": 5126,
      "count": 216,
      "max": [
        1.0,
        1.0,
        1.0
      ],
      "min": [
        -1.0,
        -0.707119345664978,
        -1.0
      ],
      "type": "VEC3"
    },
    {
      "bufferView": 1,
      "componentType": 5126,
      "count": 216,
      "max": [
        0.0,
        0.0
      ],
      "min": [
        0.0,
        0.0
      ],
      "type": "VEC2"
    },
    {
      "bufferView": 0,
      "componentType": 5125,
      "count": 489,
      "type": "SCALAR"
    },
    {
      "bufferView": 2,
      "byteOffset": 5184,
      "componentType": 5126,
      "count": 9970,
      "max": [
        39.6325569152832,
        7.718286991119385,
        14.310769081115723
      ],
      "min": [
        -39.58048629760742,
        -7.830918788909912,
        -3.7243590354919434
      ],
      "type": "VEC3"
    },
    {
      "bufferView": 2,
      "byteOffset": 124824,
      "componentType": 5126,
      "count": 9970,
      "max": [
        1.0,
        1.0,
        1.0
      ],
      "min": [
        -1.0,
        -1.0,
        -1.0
      ],
      "type": "VEC3"
    },
    {
      "bufferView": 1,
      "byteOffset": 1728,
      "componentType": 5126,
      "count": 9970,
      "max": [
        0.9716960191726685,
        0.9836879968643188
      ],
      "min": [
        0.014797000214457512,
        0.029086999595165253
      ],
      "type": "VEC2"
    },
    {
      "bufferView": 0,
      "byteOffset": 1956,
      "componentType": 5125,
      "count": 26445,
      "type": "SCALAR"
    },
    {
      "bufferView": 2,
      "byteOffset": 244464,
      "componentType": 5126,
      "count": 1638,
      "max": [
        39.20517349243164,
        7.833399772644043,
        10.023075103759766
      ],
      "min": [
        -39.58048629760742,
        -7.590118885040283,
        3.281528949737549
      ],
      "type": "VEC3"
    },
    {
      "bufferView": 2,
      "byteOffset": 264120,
      "componentType": 5126,
      "count": 1638,
      "max": [
        1.0,
        1.0,
        1.0
      ],
      "min": [
        -1.0,
        -1.0,
        -1.0
      ],
      "type": "VEC3"
    },
    {
      "bufferView": 1,
      "byteOffset": 81488,
      "componentType": 5126,
      "count": 1638,
      "max": [
        0.9736260175704956,
        0.9836879968643188
      ],
      "min": [
        0.014797000214457512,
        0.03225899860262871
      ],
      "type": "VEC2"
    },
    {
      "bufferView": 0,
      "byteOffset": 107736,
      "componentType": 5125,
      "count": 4428,
      "type": "SCALAR"
    }
  ],
  "asset": {
    "extras": {
      "author": "icilaba (https://sketchfab.com/laba39)",
      "license": "SKETCHFAB Standard (https://sketchfab.com/licenses)",
      "source": "https://sketchfab.com/3d-models/low-polyish-satellite-f22852a97c1e4d08b3e9da12277cf531",
      "title": "Low-poly(ish) satellite"
    },
    "generator": "Sketchfab-16.12.0",
    "version": "2.0"
  },
  "bufferViews": [
    {
      "buffer": 0,
      "byteLength": 125448,
      "name": "floatBufferViews",
      "target": 34963
    },
    {
      "buffer": 0,
      "byteLength": 94592,
      "byteOffset": 125448,
      "byteStride": 8,
      "name": "floatBufferViews",
      "target": 34962
    },
    {
      "buffer": 0,
      "byteLength": 283776,
      "byteOffset": 220040,
      "byteStride": 12,
      "name": "floatBufferViews",
      "target": 34962
    }
  ],
  "buffers": [
    {
      "byteLength": 503816,
      "uri": "scene.bin"
    }
  ],
  "extensionsUsed": [
    "KHR_materials_specular"
  ],
  "images": [
    {
      "uri": "textures/initialShadingGroup_baseColor.png"
    },
    {
      "uri": "textures/initialShadingGroup_metallicRoughness.png"
    },
    {
      "uri": "textures/initialShadingGroup_specularf0.png"
    }
  ],
  "materials": [
    {
      "doubleSided": true,
      "extensions": {
        "KHR_materials_specular": {
          "specularColorFactor": [
            1.0,
            1.0,
            1.0
          ],
          "specularFactor": 1.0,
          "specularTexture": {
            "index": 2
          }
        }
      },
      "name": "initialShadingGroup",
      "pbrMetallicRoughness": {
        "baseColorTexture": {
          "index": 0
        },
        "metallicRoughnessTexture": {
          "index": 1
        },
        "roughnessFactor": 0.5958113396155111
      }
    }
  ],
  "meshes": [
    {
      "name": "Object_0",
      "primitives": [
        {
          "attributes": {
            "NORMAL": 1,
            "POSITION": 0,
            "TEXCOORD_0": 2
          },
          "indices": 3,
          "material": 0,
          "mode": 4
        }
      ]
    },
    {
      "name": "Object_1",
      "primitives": [
        {
          "attributes": {
            "NORMAL": 5,
            "POSITION": 4,
            "TEXCOORD_0": 6
          },
          "indices": 7,
          "material": 0,
          "mode": 4
        }
      ]
    },
    {
      "name": "Object_2",
      "primitives": [
        {
          "attributes": {
            "NORMAL": 9,
            "POSITION": 8,
            "TEXCOORD_0": 10
          },
          "indices": 11,
          "material": 0,
          "mode": 4
        }
      ]
    }
  ],
  "nodes": [
    {
      "children": [
        1
      ],
      "matrix": [
        1.0,
        0.0,
        0.0,
        0.0,
        0.0,
        2.220446049250313e-16,
        -1.0,
        0.0,
        0.0,
        1.0,
        2.220446049250313e-16,
        0.0,
        0.0,
        0.0,
        0.0,
        1.0
      ],
      "name": "Sketchfab_model"
    },
    {
      "children": [
        2,
        3,
        4
      ],
      "name": "obj.obj.cleaner.materialmerger.gles"
    },
    {
      "mesh": 0,
      "name": "Object_2"
    },
    {
      "mesh": 1,
      "name": "Object_3"
    },
    {
      "mesh": 2,
      "name": "Object_4"
    }
  ],
  "samplers": [
    {
      "magFilter": 9729,
      "minFilter": 9987,
      "wrapS": 10497,
      "wrapT": 10497
    }
  ],
  "scene": 0,
  "scenes": [
    {
      "name": "Sketchfab_Scene",
      "nodes": [
        0
      ]
    }
  ],
  "textures": [
    {
      "sampler": 0,
      "source": 0
    },
    {
      "sampler": 0,
      "source": 1
    },
    {
      "sampler": 0,
      "source": 2
    }
  ]
}
